<svg xmlns="http://www.w3.org/2000/svg" width="23.259" height="21.596" viewBox="0 0 23.259 21.596">
    <path fill-rule="evenodd" d="M695.831 1336.876h1.5a3.042 3.042 0 0 0 5.855 0h14.238a.831.831 0 1 0 0-1.661h-14.236a3.042 3.042 0 0 0-5.855 0h-1.5a.831.831 0 1 0 0 1.661zm4.43-2.215a1.384 1.384 0 1 1-1.384 1.385 1.384 1.384 0 0 1 1.383-1.385zm17.166 8.306h-7.964a3.041 3.041 0 0 0-5.668 0h-7.964a.831.831 0 1 0 0 1.661h7.808a3.043 3.043 0 0 0 5.985 0h7.808a.831.831 0 1 0 0-1.661zm-10.8 2.492a1.384 1.384 0 1 1 1.384-1.384 1.384 1.384 0 0 1-1.383 1.384zm10.8 5.26h-1.5a3.042 3.042 0 0 0-5.855 0h-14.241a.831.831 0 0 0 0 1.661h14.238a3.042 3.042 0 0 0 5.855 0h1.5a.831.831 0 0 0 0-1.661zm-4.43 2.215a1.384 1.384 0 1 1 1.384-1.384 1.384 1.384 0 0 1-1.381 1.385z" opacity="0.4" transform="translate(-695 -1333)"/>
</svg>
