<svg xmlns="http://www.w3.org/2000/svg" width="376.092" height="813.589" viewBox="0 0 376.092 813.589">
    <defs>
        <linearGradient id="linear-gradient" x2="1" y1=".5" y2=".5" gradientUnits="objectBoundingBox">
            <stop offset="0" stop-color="#075151"/>
            <stop offset=".049" stop-color="#065556" stop-opacity=".914"/>
            <stop offset=".31" stop-color="#036c6e" stop-opacity=".518"/>
            <stop offset=".561" stop-color="#017c7f" stop-opacity=".231"/>
            <stop offset=".796" stop-color="#00868a" stop-opacity=".059"/>
            <stop offset="1" stop-color="#008a8e" stop-opacity="0"/>
        </linearGradient>
        <linearGradient id="linear-gradient-2" x2="1" y1=".5" y2=".5" gradientUnits="objectBoundingBox">
            <stop offset="0" stop-color="#5e2746"/>
            <stop offset=".199" stop-color="#51344f" stop-opacity=".863"/>
            <stop offset=".567" stop-color="#2f5769" stop-opacity=".506"/>
            <stop offset="1" stop-color="#008a8e" stop-opacity="0"/>
        </linearGradient>
        <style>
            .cls-5{fill:#fff}
        </style>
    </defs>
    <g id="Group_76" transform="translate(-210.908 6.928)">
        <g id="Group_75">
            <g id="Group_74">
                <path id="Path_251" fill="#42c1af" d="M217.17-.734l376.022.459.07 812.366-375.152.765z" transform="translate(-6.262 -6.194)"/>
            </g>
            <path id="Path_181" d="M587 660.073L211.91 211.54 212.1 0h372.423z" transform="translate(0 -6)" style="mix-blend-mode:soft-light;isolation:isolate" fill="url(#linear-gradient)" opacity="0.5"/>
            <path id="Path_184" fill="url(#linear-gradient-2)" d="M211.6 161.467c75.456-26.273 174.624-44.7 289.242-40.442 28.822 1.071 54.894 1.063 78.489.152L581.716-.036 212.1-.1z" opacity="0.2" transform="translate(0 -5.896)"/>
            <path id="Path_185" fill="url(#linear-gradient)" d="M213.753 150.149c80.49 16.557 172.328 47.038 256.375 102.7 47.808 31.663 86.274 56.278 118.293 75.527L589.151.7l-375.4 1.261z" opacity="0.3" transform="translate(-2.15 -6.7)"/>
            <path id="Path_190" d="M468.9 441.595l2.5 4.571 4.571 2.5-4.571 2.5-2.5 4.571-2.5-4.571-4.571-2.5 4.571-2.5z" class="cls-5" transform="translate(33 -142)"/>
            <path id="Path_191" d="M509.049 334.5l2.5 4.571 4.571 2.5-4.571 2.5-2.5 4.571-2.5-4.571-4.571-2.5 4.571-2.5z" class="cls-5" transform="translate(0 -140)"/>
            <path id="Path_192" d="M233.721 401.382l2.5 4.571 4.571 2.5-4.571 2.5-2.5 4.571-2.5-4.571-4.571-2.5 4.571-2.5z" class="cls-5" transform="translate(22 -34)"/>
            <path id="Path_265" d="M233.721 401.382l2.5 4.571 4.571 2.5-4.571 2.5-2.5 4.571-2.5-4.571-4.571-2.5 4.571-2.5z" class="cls-5" transform="translate(238 356)"/>
            <path id="Path_256" d="M231.489 401.382l1.711 3.128 3.128 1.711-3.128 1.711-1.711 3.128-1.711-3.128-3.128-1.711 3.128-1.711z" class="cls-5" transform="translate(238 182)"/>
            <path id="Path_267" d="M231.489 401.382l1.711 3.128 3.128 1.711-3.128 1.711-1.711 3.128-1.711-3.128-3.128-1.711 3.128-1.711z" class="cls-5" transform="translate(159 243)"/>
            <path id="Path_193" d="M472.962 42.429l2.5 4.571 4.571 2.5-4.571 2.5-2.5 4.571-2.5-4.571-4.571-2.5 4.571-2.5z" class="cls-5"/>
            <path id="Path_197" d="M283.238 61.964l2.5 4.571 4.571 2.5-4.571 2.5-2.5 4.571-2.5-4.571-4.571-2.5 4.571-2.5z" class="cls-5"/>
            <path id="Path_198" d="M561.86 132.977l2.5 4.571 4.571 2.5-4.571 2.5-2.5 4.571-2.5-4.571-4.571-2.5 4.571-2.5z" class="cls-5"/>
            <path id="Path_203" d="M226.358 101.429l1.919 3.509 3.51 1.919-3.51 1.92-1.919 3.509-1.919-3.509-3.51-1.92 3.51-1.919z" class="cls-5"/>
            <path id="Path_205" d="M399.913 85.143l1.919 3.509 3.51 1.919-3.51 1.919-1.919 3.51-1.919-3.509-3.51-1.919 3.51-1.919z" class="cls-5"/>
            <path id="Path_212" d="M476.85 129l1.405 2.57 2.57 1.406-2.57 1.406-1.405 2.57-1.405-2.57-2.57-1.406 2.57-1.406z" class="cls-5"/>
            <path id="Path_213" d="M523.177 84.953l1.405 2.57 2.57 1.406-2.57 1.406-1.405 2.57-1.405-2.57-2.57-1.406 2.57-1.406z" class="cls-5"/>
            <path id="Path_214" d="M371.3 24.31l1.405 2.57 2.57 1.406-2.57 1.406-1.405 2.57-1.405-2.57-2.57-1.406 2.57-1.406z" class="cls-5"/>
            <path id="Path_216" d="M322.626 102.881l1.4 2.57 2.57 1.406-2.57 1.406-1.4 2.57-1.406-2.57-2.57-1.406 2.57-1.406z" class="cls-5"/>
            <path id="Path_218" d="M294.4 18.881l1.405 2.57 2.57 1.406-2.57 1.406-1.405 2.57-1.4-2.57-2.57-1.406 2.57-1.405z" class="cls-5"/>
            <path id="Path_225" d="M226.358 480.57l1.405 2.57 2.57 1.405-2.57 1.406-1.405 2.57-1.405-2.57-2.57-1.406 2.57-1.405z" class="cls-5"/>
            <path id="Path_227" d="M240.595 606.739L242 609.31l2.57 1.405-2.57 1.406-1.405 2.57-1.405-2.57-2.57-1.406 2.57-1.405z" class="cls-5"/>
            <path id="Path_263" d="M240.595 606.739L242 609.31l2.57 1.405-2.57 1.406-1.405 2.57-1.405-2.57-2.57-1.406 2.57-1.405z" class="cls-5" transform="translate(-14 107)"/>
            <path id="Path_228" d="M283.238 464.569l1.405 2.57 2.57 1.405-2.57 1.406-1.405 2.57-1.405-2.57-2.57-1.406 2.57-1.405z" class="cls-5" transform="translate(-51 -214)"/>
            <path id="Path_231" d="M276.167 315.412l1.405 2.57 2.57 1.405-2.57 1.406-1.405 2.57-1.405-2.57-2.57-1.406 2.57-1.405z" class="cls-5" transform="translate(0 -140)"/>
            <path id="Path_232" d="M312.706 423.618l1.405 2.57 2.57 1.405-2.569 1.407-1.405 2.57L311.3 429l-2.57-1.406 2.57-1.405z" class="cls-5" transform="translate(0 -140)"/>
            <path id="Path_233" d="M308.731 375.64l1.405 2.57 2.57 1.405-2.57 1.406-1.405 2.57-1.405-2.57-2.57-1.406 2.57-1.405z" class="cls-5" transform="translate(0 -140)"/>
            <path id="Path_274" d="M308.731 375.64l1.405 2.57 2.57 1.405-2.57 1.406-1.405 2.57-1.405-2.57-2.57-1.406 2.57-1.405z" class="cls-5" transform="translate(-52 -80)"/>
            <path id="Path_234" d="M568.932 354.919l1.405 2.57 2.57 1.405-2.57 1.406-1.405 2.57-1.405-2.57-2.57-1.406 2.57-1.405z" class="cls-5"/>
            <path id="Path_235" d="M365.595 346.282l1.405 2.57 2.57 1.405-2.57 1.407-1.405 2.57-1.405-2.57-2.57-1.406 2.57-1.405z" class="cls-5" transform="translate(20 -170)"/>
            <path id="Path_236" d="M405.342 404.477l1.405 2.57 2.57 1.405-2.57 1.406-1.405 2.57-1.405-2.57-2.57-1.406 2.57-1.405z" class="cls-5" transform="translate(0 -140)"/>
            <path id="Path_273" d="M405.342 404.477l1.405 2.57 2.57 1.405-2.57 1.406-1.405 2.57-1.405-2.57-2.57-1.406 2.57-1.405z" class="cls-5" transform="translate(-129 20)"/>
            <path id="Path_240" d="M330.576 521.618l1.405 2.57 2.57 1.405-2.57 1.407-1.405 2.57-1.405-2.57-2.57-1.406 2.57-1.405z" class="cls-5" transform="translate(-58 -33)"/>
            <path id="Path_258" d="M330.576 521.618l1.405 2.57 2.57 1.405-2.57 1.407-1.405 2.57-1.405-2.57-2.57-1.406 2.57-1.405z" class="cls-5" transform="translate(-58 167)"/>
            <path id="Path_241" d="M322.625 654.323l1.405 2.57 2.57 1.405-2.57 1.406-1.405 2.57-1.405-2.57-2.57-1.406 2.57-1.405z" class="cls-5" transform="translate(10 -160)"/>
            <path id="Path_264" d="M322.625 654.323l1.405 2.57 2.57 1.405-2.57 1.406-1.405 2.57-1.405-2.57-2.57-1.406 2.57-1.405z" class="cls-5" transform="translate(-90 122)"/>
            <path id="Path_257" d="M322.625 654.323l1.405 2.57 2.57 1.405-2.57 1.406-1.405 2.57-1.405-2.57-2.57-1.406 2.57-1.405z" class="cls-5" transform="translate(10 40)"/>
            <path id="Path_242" d="M394.484 583.059l1.405 2.57 2.57 1.405-2.57 1.406-1.405 2.57-1.405-2.57-2.57-1.406 2.57-1.405z" class="cls-5"/>
            <path id="Path_243" d="M472.874 633.043l1.405 2.57 2.57 1.405-2.57 1.406-1.405 2.576-1.405-2.57-2.57-1.406 2.57-1.405z" class="cls-5" transform="translate(90 -20)"/>
            <path id="Path_268" d="M472.874 633.043l1.405 2.57 2.57 1.405-2.57 1.406-1.405 2.576-1.405-2.57-2.57-1.406 2.57-1.405z" class="cls-5" transform="translate(20 16)"/>
            <path id="Path_244" d="M561.86 567.519l1.405 2.57 2.57 1.405-2.57 1.406-1.405 2.57-1.405-2.57-2.57-1.406 2.57-1.405z" class="cls-5"/>
            <path id="Path_261" d="M561.86 567.519l1.405 2.57 2.57 1.405-2.57 1.406-1.405 2.57-1.405-2.57-2.57-1.406 2.57-1.405z" class="cls-5" transform="translate(0 200)"/>
            <path id="Path_255" d="M561.86 567.519l1.405 2.57 2.57 1.405-2.57 1.406-1.405 2.57-1.405-2.57-2.57-1.406 2.57-1.405z" class="cls-5" transform="translate(-255 9)"/>
            <path id="Path_270" d="M561.86 567.519l1.405 2.57 2.57 1.405-2.57 1.406-1.405 2.57-1.405-2.57-2.57-1.406 2.57-1.405z" class="cls-5" transform="translate(-309 -26)"/>
            <path id="Path_269" d="M561.86 567.519l1.405 2.57 2.57 1.405-2.57 1.406-1.405 2.57-1.405-2.57-2.57-1.406 2.57-1.405z" class="cls-5" transform="translate(-251 63)"/>
            <path id="Path_259" d="M561.86 567.519l1.405 2.57 2.57 1.405-2.57 1.406-1.405 2.57-1.405-2.57-2.57-1.406 2.57-1.405z" class="cls-5" transform="translate(-255 209)"/>
            <path id="Path_245" d="M513.024 501.43l1.406 2.57 2.57 1.405-2.57 1.406-1.405 2.57-1.405-2.57-2.57-1.406 2.57-1.405z" class="cls-5"/>
            <path id="Path_275" d="M513.024 501.43l1.406 2.57 2.57 1.405-2.57 1.406-1.405 2.57-1.405-2.57-2.57-1.406 2.57-1.405z" class="cls-5" transform="translate(18 -73)"/>
            <path id="Path_260" d="M513.024 501.43l1.406 2.57 2.57 1.405-2.57 1.406-1.405 2.57-1.405-2.57-2.57-1.406 2.57-1.405z" class="cls-5" transform="translate(0 200)"/>
            <path id="Path_254" d="M513.024 501.43l1.406 2.57 2.57 1.405-2.57 1.406-1.405 2.57-1.405-2.57-2.57-1.406 2.57-1.405z" class="cls-5" transform="translate(-102 12)"/>
            <path id="Path_262" d="M513.024 501.43l1.406 2.57 2.57 1.405-2.57 1.406-1.405 2.57-1.405-2.57-2.57-1.406 2.57-1.405z" class="cls-5" transform="translate(-102 212)"/>
            <path id="Path_266" d="M513.024 501.43l1.406 2.57 2.57 1.405-2.57 1.406-1.405 2.57-1.405-2.57-2.57-1.406 2.57-1.405z" class="cls-5" transform="translate(-140 267)"/>
            <path id="Path_247" d="M454.595 379.616l1.405 2.57 2.57 1.405L456 385l-1.405 2.57-1.406-2.57-2.57-1.406 2.57-1.405z" class="cls-5" transform="translate(0 -140)"/>
            <path id="Path_271" d="M454.595 379.616l1.405 2.57 2.57 1.405L456 385l-1.405 2.57-1.406-2.57-2.57-1.406 2.57-1.405z" class="cls-5" transform="translate(83 -341)"/>
            <path id="Path_249" d="M572.636 246.122l1.405 2.57 2.57 1.406-2.57 1.406-1.405 2.57-1.405-2.57-2.57-1.406 2.57-1.406z" class="cls-5"/>
            <path id="Path_272" d="M572.636 246.122l1.405 2.57 2.57 1.406-2.57 1.406-1.405 2.57-1.405-2.57-2.57-1.406 2.57-1.406z" class="cls-5" transform="translate(-42 113)"/>
            <path id="Path_250" d="M576.611 456.618l1.405 2.57 2.57 1.405-2.569 1.407-1.405 2.57-1.406-2.57-2.57-1.406 2.57-1.405z" class="cls-5"/>
        </g>
    </g>
</svg>
