<svg xmlns="http://www.w3.org/2000/svg" width="168.823" height="187.923" viewBox="0 0 168.823 187.923">
    <defs>
        <style>
            .cls-1{fill:#313133}.cls-14,.cls-15,.cls-4,.cls-5{opacity:.3;mix-blend-mode:multiply;isolation:isolate}.cls-4{fill:#c7c9cb}.cls-5{fill:#464749}.cls-6{fill:#ef91b2}.cls-7{fill:#edeeef}.cls-8{fill:#0099ce}.cls-9{fill:#fff}.cls-10{fill:#ed84aa;opacity:0}.cls-11{fill:none;stroke:#313133;stroke-linecap:round;stroke-linejoin:round;stroke-width:1.48px}.cls-14{fill:#a96451}.cls-15{fill:#9b9da0}
        </style>
    </defs>
    <g id="Group_48" transform="translate(-520.157 -410.488)">
        <g id="Group_47" transform="translate(520.157 410.488)">
            <g id="Group_22" transform="translate(22.325 72.598)">
                <path id="Path_17" d="M784.606 967.154c0 27.568-25.112 38.329-56.091 38.329s-56.091-10.761-56.091-38.329 25.113-61.5 56.091-61.5 56.091 33.933 56.091 61.5z" class="cls-1" transform="translate(-672.425 -905.653)"/>
                <path id="Path_18" fill="#818386" d="M731.234 906.279c27.9 1.9 50.086 32.666 50.086 57.807 0 25.953-23.642 36.084-52.8 36.084s-52.8-10.13-52.8-36.084c0-25.141 22.186-55.909 50.086-57.807-29.716 1.9-53.373 34.653-53.373 61.41 0 27.568 25.113 38.329 56.091 38.329s56.091-10.761 56.091-38.329c-.009-26.757-23.666-59.506-53.381-61.41z" transform="translate(-672.425 -906.187)" style="mix-blend-mode:multiply;isolation:isolate" opacity="0.3"/>
            </g>
            <g id="Group_23" transform="translate(38.382 86.888)">
                <path id="Path_19" fill="#e0e1e3" d="M862.013 1047.009c0 19.676-17.924 27.355-40.033 27.355s-40.033-7.679-40.033-27.355 17.923-43.9 40.033-43.9 40.033 24.225 40.033 43.9z" transform="translate(-781.947 -1003.114)"/>
                <path id="Path_20" d="M858.928 1200.2a33.258 33.258 0 0 1 .394 4.986c0 18.353-16.719 25.516-37.342 25.516s-37.343-7.163-37.343-25.516a33.263 33.263 0 0 1 .4-4.986 41.047 41.047 0 0 0-3.086 15c0 19.676 17.923 27.355 40.033 27.355s40.033-7.68 40.033-27.355a41.043 41.043 0 0 0-3.089-15z" class="cls-4" transform="translate(-781.947 -1171.307)"/>
                <path id="Path_21" d="M821.98 1307.541c-21.047 0-38.286-6.968-39.9-24.608-.081.965-.136 1.924-.136 2.87 0 19.676 17.923 27.355 40.033 27.355s40.033-7.68 40.033-27.355c0-.946-.054-1.905-.135-2.87-1.609 17.64-18.848 24.608-39.895 24.608z" class="cls-4" transform="translate(-781.947 -1241.907)"/>
            </g>
            <g id="Group_26" transform="translate(0 96.872)">
                <path id="Path_26" d="M524.159 1123.791c4.035 4.935 10.9 1.4 15.1-2.512 5.779-5.389 7.145-13.615 11.63-19.816 3.537-4.89 8.025-10.546 9-16.7 1.033-6.531-5.774-13.166-11.467-13.543-7.522-.499-39.334 34.139-24.263 52.571z" class="cls-1" transform="translate(-520.157 -1071.214)"/>
            </g>
            <g id="Group_27" transform="translate(119.078 74.167)">
                <path id="Path_27" d="M1381.4 920.949c-3.511-5.32-9.574-5.4-14.938-3.353-7.382 2.819-11.74 9.928-18.229 13.987-5.116 3.2-11.4 6.752-14.621 12.089-3.415 5.663.649 13.907 5.531 16.861 14.006 8.477 48.224-30.533 42.257-39.584z" class="cls-1" transform="translate(-1332.344 -916.354)"/>
            </g>
            <g id="Group_36" transform="translate(16.183)">
                <g id="Group_30" transform="translate(3.074)">
                    <g id="Group_28">
                        <path id="Path_28" d="M654.213 435.134c-5.365-5.991-2.168-13.066 4.358-18.912s13.912-8.247 19.277-2.258 6.677 18.1.15 23.948-18.421 3.212-23.785-2.778z" class="cls-1" transform="translate(-651.502 -410.488)"/>
                        <path id="Path_29" d="M677.848 413.964c-5.364-5.989-12.749-3.588-19.277 2.258s-9.723 12.921-4.358 18.912c5.065 5.654 15.946 8.309 22.639 3.669-5.987 4.023-15.6 1.642-20.095-3.373-4.791-5.348-1.937-11.667 3.892-16.889s12.423-7.363 17.214-2.015 5.963 16.164.134 21.385c6.528-5.845 5.215-17.958-.149-23.947z" class="cls-5" transform="translate(-651.502 -410.488)"/>
                        <path id="Path_30" d="M707.277 483.542c-3.765-4.2-1.522-9.171 3.058-13.276s9.765-5.788 13.532-1.583 4.686 12.705.106 16.809-12.931 2.254-16.696-1.95z" class="cls-6" transform="translate(-697.475 -458.067)"/>
                    </g>
                    <g id="Group_29" transform="translate(87.666)">
                        <path id="Path_31" d="M1277.626 435.134c5.365-5.991 2.168-13.066-4.358-18.912s-13.911-8.247-19.276-2.258-6.677 18.1-.15 23.948 18.419 3.212 23.784-2.778z" class="cls-1" transform="translate(-1249.44 -410.488)"/>
                        <path id="Path_32" d="M1253.991 413.964c5.365-5.989 12.75-3.588 19.276 2.258s9.724 12.921 4.358 18.912c-5.065 5.654-15.946 8.309-22.638 3.669 5.986 4.023 15.6 1.642 20.093-3.373 4.791-5.348 1.937-11.667-3.892-16.889s-12.423-7.363-17.214-2.015-5.962 16.164-.134 21.385c-6.526-5.845-5.213-17.958.151-23.947z" class="cls-5" transform="translate(-1249.44 -410.488)"/>
                        <path id="Path_33" d="M1278.169 483.542c3.765-4.2 1.522-9.171-3.06-13.276s-9.765-5.788-13.53-1.583-4.687 12.705-.105 16.809 12.926 2.254 16.695-1.95z" class="cls-6" transform="translate(-1257.073 -458.067)"/>
                    </g>
                </g>
                <path id="Path_34" d="M755 508.025c0 30.585-27.862 42.525-62.232 42.525s-62.233-11.939-62.233-42.525 27.862-68.238 62.233-68.238S755 477.438 755 508.025z" class="cls-7" transform="translate(-630.533 -435.491)"/>
                <path id="Path_35" d="M708.689 734.249c-.96 3.086-.2 8.638 1.354 11.448 1.52 2.75 4.292 4.208 7.258 4.919 12.937 3.105 30.9-5.5 32.541-19.679.675-5.845-.609-14.137-5.571-17.988-10.425-8.09-24.248 3.4-30.527 11.565a32.449 32.449 0 0 0-5.055 9.735z" class="cls-1" transform="translate(-696.868 -666.251)"/>
                <path id="Path_36" d="M817.964 797.844a3.474 3.474 0 0 0 2.464 1.671 9.507 9.507 0 0 0 5.2-.355c2.939-1.008 5.225-3.1 5.738-6.113a6.878 6.878 0 0 0-2.386-6.595c-6.301-4.52-13.459 6.417-11.016 11.392z" class="cls-7" transform="translate(-790.065 -730.416)"/>
                <path id="Path_37" d="M1163.05 734.249c.961 3.086.2 8.638-1.354 11.448-1.521 2.75-4.292 4.208-7.257 4.919-12.938 3.105-30.9-5.5-32.542-19.679-.675-5.845.609-14.137 5.571-17.988 10.425-8.09 24.248 3.4 30.526 11.565a32.429 32.429 0 0 1 5.056 9.735z" class="cls-1" transform="translate(-1049.713 -666.251)"/>
                <path id="Path_38" d="M1215.276 797.844a3.474 3.474 0 0 1-2.463 1.671 9.506 9.506 0 0 1-5.2-.355c-2.94-1.008-5.226-3.1-5.739-6.113a6.879 6.879 0 0 1 2.385-6.595c6.301-4.52 13.459 6.417 11.017 11.392z" class="cls-7" transform="translate(-1118.016 -730.416)"/>
                <path id="Path_39" d="M742.63 647.509a72.252 72.252 0 0 1 6.158 28c0 30.585-25.082 42.524-56.022 42.524s-56.023-11.939-56.023-42.524a72.276 72.276 0 0 1 6.158-28c-7.767 11.761-12.368 25.355-12.368 37.783 0 30.586 27.862 42.525 62.233 42.525S755 715.877 755 685.292c0-12.428-4.6-26.022-12.37-37.783z" class="cls-4" transform="translate(-630.533 -612.758)"/>
                <path id="Path_40" d="M748.544 719.872a65.372 65.372 0 0 1 4.478 22.885c0 30.586-26.977 42.525-60.257 42.525s-60.258-11.939-60.258-42.525a65.363 65.363 0 0 1 4.479-22.884 65.8 65.8 0 0 0-6.454 27.172c0 30.586 27.862 42.525 62.233 42.525S755 777.631 755 747.045a65.805 65.805 0 0 0-6.456-27.173z" class="cls-4" transform="translate(-630.533 -674.512)"/>
                <g id="Group_33" transform="translate(32.268 55.389)">
                    <g id="Group_31">
                        <path id="Path_41" d="M859.773 794.192c0 3.269-2.049 5.92-4.574 5.92s-4.575-2.651-4.575-5.92 2.048-5.921 4.575-5.921 4.574 2.651 4.574 5.921z" class="cls-8" transform="translate(-850.623 -788.271)"/>
                        <path id="Path_42" d="M862.009 804.384a1.76 1.76 0 1 1-1.7-2.2 2 2 0 0 1 1.7 2.2z" class="cls-9" transform="translate(-857.434 -800.141)"/>
                    </g>
                    <g id="Group_32" transform="translate(51.471)">
                        <path id="Path_43" d="M1210.839 794.192c0 3.269-2.048 5.92-4.575 5.92s-4.574-2.651-4.574-5.92 2.047-5.921 4.574-5.921 4.575 2.651 4.575 5.921z" class="cls-8" transform="translate(-1201.69 -788.271)"/>
                        <path id="Path_44" d="M1213.07 804.384a1.759 1.759 0 1 1-1.7-2.2 2 2 0 0 1 1.7 2.2z" class="cls-9" transform="translate(-1208.496 -800.141)"/>
                    </g>
                </g>
                <path id="Path_45" d="M794.008 886.759c0 1.359-3.287 2.459-7.34 2.459s-7.339-1.1-7.339-2.459 3.286-2.458 7.339-2.458 7.34 1.099 7.34 2.458z" class="cls-10" transform="translate(-757.513 -814.833)"/>
                <path id="Path_46" d="M1247.568 886.759c0 1.359-3.285 2.459-7.339 2.459s-7.339-1.1-7.339-2.459 3.286-2.458 7.339-2.458 7.339 1.099 7.339 2.458z" class="cls-10" transform="translate(-1144.576 -814.833)"/>
                <g id="Group_34" transform="translate(51.37 79.283)">
                    <path id="Path_47" d="M991.486 951.246c.362 4.481.377 7.1-2.7 8.444-2.249.981-6.75 1.128-8.835 1.567" class="cls-11" transform="translate(-980.907 -951.246)"/>
                    <path id="Path_48" d="M1055.973 951.246c-.362 4.481-.376 7.1 2.7 8.444 2.249.981 6.371.8 8.785 1.128" class="cls-11" transform="translate(-1044.828 -951.246)"/>
                </g>
                <g id="Group_35" transform="translate(51.832 67.466)">
                    <path id="Path_49" d="M984.059 876.249c0-4.027 4.655-5.6 10.4-5.6s10.4 1.572 10.4 5.6-4.658 8.987-10.4 8.987-10.4-4.96-10.4-8.987z" class="cls-1" transform="translate(-984.059 -870.65)"/>
                    <path id="Path_50" d="M1003.871 889.921a5.027 5.027 0 0 1 .077.86c0 4.028-4.248 8.985-9.489 8.985s-9.489-4.957-9.489-8.985a5.069 5.069 0 0 1 .078-.86 4.2 4.2 0 0 0-.988 2.773c0 4.028 4.655 8.987 10.4 8.987s10.4-4.96 10.4-8.987a4.2 4.2 0 0 0-.989-2.773z" transform="translate(-984.059 -887.096)" style="mix-blend-mode:multiply;isolation:isolate" fill="#5d3925" opacity="0.5"/>
                    <path id="Path_51" fill="#fff3c9" d="M1031.634 878.842c0 .678-2.171 1.229-4.847 1.229s-4.847-.551-4.847-1.229 2.169-1.23 4.847-1.23 4.847.549 4.847 1.23z" opacity="0.4" transform="translate(-1016.386 -876.591)"/>
                </g>
            </g>
            <g id="Group_41" transform="translate(16.863 136.664)">
                <path id="Path_52" d="M692.771 1374.2c0 14.155-12.895 19.68-28.8 19.68s-28.8-5.525-28.8-19.68 12.894-31.578 28.8-31.578 28.8 17.424 28.8 31.578z" class="cls-1" transform="translate(-635.171 -1342.621)"/>
                <path id="Path_53" d="M688.583 1456.069a31.534 31.534 0 0 1 2.014 10.68c0 14.155-11.922 19.679-26.627 19.679s-26.626-5.524-26.626-19.679a31.583 31.583 0 0 1 2.012-10.68 31.627 31.627 0 0 0-4.186 14.945c0 14.155 12.894 19.68 28.8 19.68s28.8-5.525 28.8-19.68a31.618 31.618 0 0 0-4.187-14.945z" class="cls-14" transform="translate(-635.171 -1439.436)"/>
                <g id="Group_40" transform="translate(7.965 5.235)">
                    <path id="Path_54" d="M731.165 1463.521c0 8.642-9.327 12.016-20.835 12.016s-20.835-3.374-20.835-12.016 9.328-19.283 20.835-19.283 20.835 10.64 20.835 19.283z" class="cls-7" transform="translate(-689.495 -1434.574)"/>
                    <path id="Path_55" d="M729.065 1524.154a14.663 14.663 0 0 1 .251 2.633c0 8.642-8.5 12.016-18.986 12.016s-18.986-3.374-18.986-12.016a14.629 14.629 0 0 1 .251-2.633 16.2 16.2 0 0 0-2.1 7.566c0 8.642 9.328 12.016 20.835 12.016s20.835-3.374 20.835-12.016a16.187 16.187 0 0 0-2.1-7.566z" class="cls-15" transform="translate(-689.495 -1502.773)"/>
                    <path id="Path_56" d="M729.714 1533.168a13.207 13.207 0 0 1 .44 3.285c0 8.224-8.876 11.434-19.824 11.434s-19.824-3.21-19.824-11.434a13.154 13.154 0 0 1 .441-3.285 15.44 15.44 0 0 0-1.452 6.244c0 8.642 9.328 12.016 20.835 12.016s20.835-3.374 20.835-12.016a15.447 15.447 0 0 0-1.451-6.244z" class="cls-15" transform="translate(-689.495 -1510.466)"/>
                    <g id="Group_37" transform="translate(1.862 3.894)">
                        <path id="Path_57" d="M702.23 1411.565c-.483 3.5 3.806 2.307 5.545.939 1.432-1.126 3.963-3.608 3.194-5.731-1.927-5.325-8.358 2.034-8.739 4.792z" class="cls-7" transform="translate(-702.193 -1404.887)"/>
                        <path id="Path_58" d="M710.938 1417.232a9.719 9.719 0 0 1-3.162 3.924c-1.452 1.142-4.674 2.153-5.418.42a3.134 3.134 0 0 0-.127.524c-.483 3.5 3.806 2.307 5.545.939 1.432-1.126 3.963-3.608 3.194-5.731-.01-.027-.022-.049-.032-.076z" class="cls-15" transform="translate(-702.193 -1415.422)"/>
                        <path id="Path_59" d="M711.028 1417.464c-.006-.017-.015-.032-.021-.049-.032 1.893-2.092 3.885-3.332 4.861-1.449 1.14-4.659 2.149-5.413.432-.05 2.927 3.914 1.791 5.572.487 1.432-1.126 3.966-3.608 3.194-5.731z" class="cls-15" transform="translate(-702.251 -1415.578)"/>
                    </g>
                    <g id="Group_38" transform="translate(31.33 3.894)">
                        <path id="Path_60" d="M912.07 1411.565c.482 3.5-3.807 2.307-5.546.939-1.433-1.126-3.964-3.608-3.194-5.731 1.928-5.325 8.359 2.034 8.74 4.792z" class="cls-7" transform="translate(-903.188 -1404.887)"/>
                        <path id="Path_61" d="M903.363 1417.232a9.706 9.706 0 0 0 3.162 3.924c1.452 1.142 4.673 2.153 5.419.42a3.233 3.233 0 0 1 .127.524c.482 3.5-3.807 2.307-5.546.939-1.433-1.126-3.964-3.608-3.194-5.731.01-.027.021-.049.032-.076z" class="cls-15" transform="translate(-903.188 -1415.422)"/>
                        <path id="Path_62" d="M903.33 1417.464l.02-.049c.033 1.893 2.092 3.885 3.333 4.861 1.449 1.14 4.659 2.149 5.414.432.05 2.927-3.916 1.791-5.573.487-1.432-1.126-3.963-3.608-3.194-5.731z" class="cls-15" transform="translate(-903.188 -1415.578)"/>
                    </g>
                    <g id="Group_39" transform="translate(15.348)">
                        <path id="Path_63" d="M804.114 1383.157c1.771-1.2 1.466-2.98-.02-4.034-1.217-.864-5.046-1.139-7.42-.258-1.969.731-3.243 2-2.008 3.712 1.875 2.595 7.064 2.197 9.448.58z" class="cls-7" transform="translate(-794.179 -1378.325)"/>
                        <path id="Path_64" d="M804.879 1389.132a2.649 2.649 0 0 1-1.086 1.52c-2.223 1.63-7.045 2.057-8.77-.527a2.686 2.686 0 0 1-.371-.788 1.812 1.812 0 0 0 .015 2.462c1.874 2.6 7.063 2.2 9.447.581a2.17 2.17 0 0 0 .765-3.248z" class="cls-15" transform="translate(-794.181 -1387.548)"/>
                        <path id="Path_65" d="M804.13 1396.088c-2.384 1.616-7.573 2.014-9.447-.58a2.658 2.658 0 0 1-.408-.805 1.946 1.946 0 0 0 .408 1.784c1.874 2.6 7.063 2.2 9.447.581a2.244 2.244 0 0 0 1.139-2.443 2.639 2.639 0 0 1-1.139 1.463z" class="cls-15" transform="translate(-794.195 -1392.235)"/>
                    </g>
                </g>
            </g>
            <g id="Group_46" transform="translate(79.33 136.664)">
                <path id="Path_66" d="M1118.833 1374.2c0 14.155-12.894 19.68-28.8 19.68s-28.8-5.525-28.8-19.68 12.895-31.578 28.8-31.578 28.8 17.424 28.8 31.578z" class="cls-1" transform="translate(-1061.233 -1342.621)"/>
                <path id="Path_67" d="M1114.647 1456.069a31.558 31.558 0 0 1 2.013 10.68c0 14.155-11.921 19.679-26.626 19.679s-26.627-5.524-26.627-19.679a31.556 31.556 0 0 1 2.014-10.68 31.629 31.629 0 0 0-4.187 14.945c0 14.155 12.895 19.68 28.8 19.68s28.8-5.525 28.8-19.68a31.623 31.623 0 0 0-4.187-14.945z" class="cls-14" transform="translate(-1061.233 -1439.436)"/>
                <g id="Group_45" transform="translate(7.965 5.235)">
                    <path id="Path_68" d="M1157.231 1463.521c0 8.642-9.328 12.016-20.835 12.016s-20.835-3.374-20.835-12.016 9.328-19.283 20.835-19.283 20.835 10.64 20.835 19.283z" class="cls-7" transform="translate(-1115.561 -1434.574)"/>
                    <path id="Path_69" d="M1155.13 1524.154a14.624 14.624 0 0 1 .251 2.633c0 8.642-8.5 12.016-18.985 12.016s-18.986-3.374-18.986-12.016a14.7 14.7 0 0 1 .25-2.633 16.191 16.191 0 0 0-2.1 7.566c0 8.642 9.328 12.016 20.835 12.016s20.835-3.374 20.835-12.016a16.188 16.188 0 0 0-2.1-7.566z" class="cls-15" transform="translate(-1115.561 -1502.773)"/>
                    <path id="Path_70" d="M1155.779 1533.168a13.146 13.146 0 0 1 .441 3.285c0 8.224-8.875 11.434-19.824 11.434s-19.825-3.21-19.825-11.434a13.157 13.157 0 0 1 .441-3.285 15.422 15.422 0 0 0-1.451 6.244c0 8.642 9.328 12.016 20.835 12.016s20.835-3.374 20.835-12.016a15.421 15.421 0 0 0-1.452-6.244z" class="cls-15" transform="translate(-1115.561 -1510.466)"/>
                    <g id="Group_42" transform="translate(1.861 3.894)">
                        <path id="Path_71" d="M1128.292 1411.565c-.482 3.5 3.807 2.307 5.546.939 1.433-1.126 3.963-3.608 3.194-5.731-1.932-5.325-8.359 2.034-8.74 4.792z" class="cls-7" transform="translate(-1128.255 -1404.887)"/>
                        <path id="Path_72" d="M1137 1417.232a9.712 9.712 0 0 1-3.162 3.924c-1.452 1.142-4.673 2.153-5.418.42a3.166 3.166 0 0 0-.127.524c-.482 3.5 3.807 2.307 5.546.939 1.433-1.126 3.963-3.608 3.194-5.731-.011-.027-.023-.049-.033-.076z" class="cls-15" transform="translate(-1128.255 -1415.422)"/>
                        <path id="Path_73" d="M1137.09 1417.464l-.021-.049c-.032 1.893-2.092 3.885-3.333 4.861-1.448 1.14-4.659 2.149-5.413.432-.051 2.927 3.915 1.791 5.573.487 1.433-1.126 3.963-3.608 3.194-5.731z" class="cls-15" transform="translate(-1128.313 -1415.578)"/>
                    </g>
                    <g id="Group_43" transform="translate(31.33 3.894)">
                        <path id="Path_74" d="M1338.132 1411.565c.483 3.5-3.807 2.307-5.545.939-1.433-1.126-3.963-3.608-3.2-5.731 1.934-5.325 8.364 2.034 8.745 4.792z" class="cls-7" transform="translate(-1329.25 -1404.887)"/>
                        <path id="Path_75" d="M1329.425 1417.232a9.715 9.715 0 0 0 3.162 3.924c1.452 1.142 4.673 2.153 5.418.42a3.193 3.193 0 0 1 .128.524c.483 3.5-3.807 2.307-5.545.939-1.433-1.126-3.963-3.608-3.2-5.731.012-.027.027-.049.037-.076z" class="cls-15" transform="translate(-1329.25 -1415.422)"/>
                        <path id="Path_76" d="M1329.392 1417.464l.022-.049c.031 1.893 2.091 3.885 3.332 4.861 1.45 1.14 4.66 2.149 5.414.432.05 2.927-3.915 1.791-5.572.487-1.434-1.126-3.964-3.608-3.196-5.731z" class="cls-15" transform="translate(-1329.25 -1415.578)"/>
                    </g>
                    <g id="Group_44" transform="translate(15.348)">
                        <path id="Path_77" d="M1230.177 1383.157c1.771-1.2 1.467-2.98-.019-4.034-1.218-.864-5.046-1.139-7.421-.258-1.969.731-3.243 2-2.007 3.712 1.87 2.595 7.063 2.197 9.447.58z" class="cls-7" transform="translate(-1220.243 -1378.325)"/>
                        <path id="Path_78" d="M1230.944 1389.132a2.651 2.651 0 0 1-1.086 1.52c-2.224 1.63-7.045 2.057-8.771-.527a2.7 2.7 0 0 1-.37-.788 1.812 1.812 0 0 0 .015 2.462c1.874 2.6 7.063 2.2 9.447.581a2.17 2.17 0 0 0 .765-3.248z" class="cls-15" transform="translate(-1220.245 -1387.548)"/>
                        <path id="Path_79" d="M1230.2 1396.088c-2.384 1.616-7.573 2.014-9.447-.58a2.634 2.634 0 0 1-.407-.805 1.947 1.947 0 0 0 .407 1.784c1.874 2.6 7.062 2.2 9.447.581a2.241 2.241 0 0 0 1.139-2.443 2.63 2.63 0 0 1-1.139 1.463z" class="cls-15" transform="translate(-1220.262 -1392.235)"/>
                    </g>
                </g>
            </g>
        </g>
    </g>
</svg>
