<svg xmlns="http://www.w3.org/2000/svg" width="156" height="95.082"><defs><style>.cls-2{fill:#fff}</style></defs><g id="student_gator" transform="translate(-19.469 -67.629)"><text id="StudentGator" fill="#fff" font-family="Roboto-Bold, Roboto" font-size="25" font-weight="700" letter-spacing=".02em" transform="translate(19.469 156.711)"><tspan x="0" y="0">StudentGator</tspan></text><g id="layer101" transform="translate(80.545 67.629)"><path id="Path_14" d="M30.016 61.615a9.291 9.291 0 01-1.09-2.213c-.724-1.6-1.509-3.161-2.261-4.745l-2.278-4.8-4.56-9.594-2.37-4.983c-1.335-2.817-2.9-5.594-3.561-8.683A16.591 16.591 0 0132.561 6.715a16.625 16.625 0 017.231 2.975 17.1 17.1 0 012.937 2.684 16.254 16.254 0 013.135 5.367 17.567 17.567 0 01-.2 11.5 10.161 10.161 0 01-.75 1.491c-.222.391-.318.833-.509 1.24l-1.034 2.2q-1.058 2.246-2.124 4.489c-1.5 3.161-3.017 6.322-4.511 9.482l-.862 1.824-1.724 3.647-2.091 4.416q-.524 1.1-1.046 2.207c-.1.216-.527 1.465-.795 1.471a.287.287 0 01-.202-.093zm4.454-29.556a5.926 5.926 0 00.757-.165 5.293 5.293 0 003.5-3.6 12.657 12.657 0 00.255-3.529.823.823 0 01.561-.926l5.421-2.953L31.3 13.381a.887.887 0 00-1.1-.017L23.213 17.2c-2.227 1.221-4.582 2.337-6.728 3.7a14.911 14.911 0 001.969 1.055L18.4 29a2.639 2.639 0 00.575 2.046c.144.127.5-.79.534-.884a6.828 6.828 0 00.057-2.169q-.022-1.365.011-2.73c.016-.66-.176-1.982.182-2.539a4.545 4.545 0 011.358.594 8.622 8.622 0 011.221.726 10.845 10.845 0 00.527 4.838 5.487 5.487 0 003.488 3.042 9.8 9.8 0 002.5.279c1.255.022 2.514 0 3.766-.026a14.1 14.1 0 001.85-.116z" class="cls-2" transform="translate(-13.545 -6.544)"/><path id="Path_15" d="M150.228 264.276a4.453 4.453 0 01-3.279-2.409 5.758 5.758 0 01-.61-2.407c-.012-.314-.106-2.034.458-1.732l6.824 3.664a.511.511 0 00.621.016l7.166-3.807a6.689 6.689 0 01-.339 4.069 4.794 4.794 0 01-1.585 1.945 5.065 5.065 0 01-2.806.744 39.029 39.029 0 01-6.058-.032q-.2-.019-.392-.051z" class="cls-2" transform="translate(-136.787 -239.565)"/><path id="Path_16" d="M121.081 139.43l-.019-.01q-3.314-1.741-6.613-3.512-.79-.423-1.58-.85c-.57-.307-2.452-.908-1.026-1.575a51.188 51.188 0 003.724-1.925l5.206-2.835a1.5 1.5 0 01.713-.244 1.458 1.458 0 01.682.24l9.244 5.06c.1.057.222.133.233.252.013.144-.132.244-.258.311l-9.468 5.08a.934.934 0 01-.407.144.9.9 0 01-.431-.136z" class="cls-2" transform="translate(-104.296 -119.72)"/></g></g></svg>