<svg xmlns="http://www.w3.org/2000/svg" width="187.924" height="40.255" viewBox="0 0 187.924 40.255">
    <defs>
        <style>
            .cls-2{fill:#42c1af}
        </style>
    </defs>
    <g id="student_gator" transform="translate(-13.545 -6.544)">
        <text id="StudentGator" fill="#42c1af" font-family="Roboto-Bold, Roboto" font-size="25px" font-weight="700" letter-spacing="0.02em" transform="translate(45.469 35.711)">
            <tspan x="0" y="0">StudentGator</tspan>
        </text>
        <g id="layer101" transform="translate(13.545 6.544)">
            <path id="Path_14" d="M25.563 46.727a6.779 6.779 0 0 1-.8-1.615c-.528-1.167-1.1-2.306-1.65-3.463l-1.662-3.5-3.327-7-1.724-3.638a29.585 29.585 0 0 1-2.6-6.335A12.106 12.106 0 0 1 27.42 6.669 12.131 12.131 0 0 1 32.7 8.84a12.475 12.475 0 0 1 2.139 1.96 11.86 11.86 0 0 1 2.287 3.916 12.818 12.818 0 0 1-.149 8.394 7.414 7.414 0 0 1-.547 1.09c-.162.285-.232.607-.372.9l-.754 1.6q-.772 1.638-1.55 3.275c-1.1 2.306-2.2 4.613-3.291 6.919l-.629 1.331-1.258 2.661-1.526 3.228-.763 1.611c-.074.157-.385 1.069-.58 1.073a.21.21 0 0 1-.144-.071zm3.25-21.566a4.324 4.324 0 0 0 .552-.121 3.862 3.862 0 0 0 2.557-2.628 9.235 9.235 0 0 0 .186-2.575.6.6 0 0 1 .409-.676l3.956-2.155-9.973-5.473a.647.647 0 0 0-.8-.012l-5.1 2.8c-1.625.891-3.343 1.705-4.909 2.7a10.88 10.88 0 0 0 1.437.77l-.038 5.144a1.925 1.925 0 0 0 .419 1.493c.1.093.367-.577.39-.645a4.982 4.982 0 0 0 .041-1.583q-.016-1 .008-1.992c.012-.482-.128-1.446.133-1.853a3.316 3.316 0 0 1 .991.433 6.291 6.291 0 0 1 .891.53 7.913 7.913 0 0 0 .384 3.53 4 4 0 0 0 2.545 2.219 7.154 7.154 0 0 0 1.825.2c.916.016 1.835 0 2.748-.019a10.287 10.287 0 0 0 1.35-.085z" class="cls-2" transform="translate(-13.545 -6.544)"/>
            <path id="Path_15" d="M149.173 262.471a3.249 3.249 0 0 1-2.393-1.758 4.2 4.2 0 0 1-.445-1.756c-.009-.229-.078-1.484.334-1.264l4.979 2.673a.373.373 0 0 0 .453.012l5.229-2.778a4.881 4.881 0 0 1-.247 2.969 3.5 3.5 0 0 1-1.156 1.419 3.7 3.7 0 0 1-2.047.543 28.475 28.475 0 0 1-4.42-.023q-.147-.014-.287-.037z" class="cls-2" transform="translate(-139.365 -244.441)"/>
            <path id="Path_16" d="M118.442 136.47l-.014-.007q-2.418-1.271-4.825-2.563l-1.153-.62c-.416-.224-1.789-.663-.748-1.149.925-.432 1.83-.9 2.717-1.4l3.8-2.068a1.1 1.1 0 0 1 .52-.178 1.064 1.064 0 0 1 .5.175l6.745 3.692c.077.042.162.1.17.184.009.1-.1.178-.188.227l-6.908 3.707a.681.681 0 0 1-.3.1.66.66 0 0 1-.316-.1z" class="cls-2" transform="translate(-106.195 -122.088)"/>
        </g>
    </g>
</svg>
